<svg width="32" height="32" viewBox="0 0 32 32" fill="none" xmlns="http://www.w3.org/2000/svg">
<rect x="5" y="6" width="22" height="20" fill="white"/>
<path fill-rule="evenodd" clip-rule="evenodd" d="M16 32C24.8366 32 32 24.8366 32 16C32 7.16344 24.8366 0 16 0C7.16344 0 0 7.16344 0 16C0 24.8366 7.16344 32 16 32ZM24 12.64C24 10.08 21.92 8 19.36 8H12.64C11.4094 8 10.2292 8.48886 9.35903 9.35903C8.48886 10.2292 8 11.4094 8 12.64V19.36C8 21.92 10.08 24 12.64 24H19.36C20.5906 24 21.7708 23.5111 22.641 22.641C23.5111 21.7708 24 20.5906 24 19.36V12.64ZM10.4435 10.4435C10.9836 9.90343 11.7162 9.6 12.48 9.6H19.52C21.112 9.6 22.4 10.888 22.4 12.48V19.52C22.4 20.2838 22.0966 21.0164 21.5565 21.5565C21.0164 22.0966 20.2838 22.4 19.52 22.4H12.48C10.888 22.4 9.6 21.112 9.6 19.52V12.48C9.6 11.7162 9.90343 10.9836 10.4435 10.4435ZM20.9071 11.0929C20.7196 10.9054 20.4652 10.8 20.2 10.8C19.9348 10.8 19.6804 10.9054 19.4929 11.0929C19.3054 11.2804 19.2 11.5348 19.2 11.8C19.2 12.0652 19.3054 12.3196 19.4929 12.5071C19.6804 12.6946 19.9348 12.8 20.2 12.8C20.4652 12.8 20.7196 12.6946 20.9071 12.5071C21.0946 12.3196 21.2 12.0652 21.2 11.8C21.2 11.5348 21.0946 11.2804 20.9071 11.0929ZM18.8284 13.1716C18.0783 12.4214 17.0609 12 16 12C14.9391 12 13.9217 12.4214 13.1716 13.1716C12.4214 13.9217 12 14.9391 12 16C12 17.0609 12.4214 18.0783 13.1716 18.8284C13.9217 19.5786 14.9391 20 16 20C17.0609 20 18.0783 19.5786 18.8284 18.8284C19.5786 18.0783 20 17.0609 20 16C20 14.9391 19.5786 13.9217 18.8284 13.1716ZM14.3029 14.3029C14.753 13.8529 15.3635 13.6 16 13.6C16.6365 13.6 17.247 13.8529 17.6971 14.3029C18.1471 14.753 18.4 15.3635 18.4 16C18.4 16.6365 18.1471 17.247 17.6971 17.6971C17.247 18.1471 16.6365 18.4 16 18.4C15.3635 18.4 14.753 18.1471 14.3029 17.6971C13.8529 17.247 13.6 16.6365 13.6 16C13.6 15.3635 13.8529 14.753 14.3029 14.3029Z" fill="#EB6475"/>
</svg>
