<svg width="32" height="32" viewBox="0 0 32 32" fill="none" xmlns="http://www.w3.org/2000/svg">
<rect x="6" y="6" width="20" height="19" fill="white"/>
<path fill-rule="evenodd" clip-rule="evenodd" d="M16 32C24.8366 32 32 24.8366 32 16C32 7.16344 24.8366 0 16 0C7.16344 0 0 7.16344 0 16C0 24.8366 7.16344 32 16 32ZM8.064 15.928C8.064 11.56 11.624 8 15.992 8C18.112 8 20.104 8.824 21.6 10.328C23.096 11.824 23.92 13.816 23.92 15.936C23.92 20.304 20.36 23.864 15.992 23.864C14.664 23.864 13.36 23.528 12.2 22.896L8 24L9.12 19.888C8.432 18.688 8.064 17.328 8.064 15.928ZM20.656 11.272C19.408 10.024 17.76 9.336 16 9.336C12.36 9.336 9.408 12.296 9.4 15.928C9.4 17.176 9.752 18.4 10.408 19.432L10.568 19.688L9.904 22.12L12.4 21.464L12.64 21.6C13.648 22.208 14.808 22.52 15.992 22.52C19.624 22.52 22.584 19.568 22.584 15.936C22.584 14.176 21.896 12.52 20.656 11.272ZM12.656 12.512C12.84 12.312 13.056 12.264 13.184 12.264C13.2553 12.264 13.3244 12.2662 13.3901 12.2683C13.4498 12.2702 13.5067 12.272 13.56 12.272C13.5748 12.2729 13.59 12.2731 13.6056 12.2733C13.7249 12.2747 13.8665 12.2763 14.008 12.616C14.0796 12.7831 14.1934 13.0594 14.3042 13.3281C14.4531 13.6896 14.5965 14.0375 14.624 14.088C14.672 14.184 14.704 14.296 14.64 14.432C14.6289 14.4542 14.6187 14.4752 14.609 14.4954C14.5627 14.5913 14.5259 14.6674 14.44 14.76C14.36 14.88 14.232 15.024 14.144 15.112C14.048 15.2 13.96 15.32 14.056 15.512C14.176 15.712 14.568 16.36 15.16 16.888C15.7866 17.4479 16.3354 17.6857 16.6213 17.8096C16.6786 17.8344 16.7253 17.8547 16.76 17.872C16.952 17.968 17.064 17.952 17.184 17.816C17.296 17.688 17.68 17.24 17.808 17.04C17.96 16.848 18.072 16.88 18.256 16.944C18.432 17.008 19.408 17.488 19.608 17.6C19.6322 17.6106 19.6553 17.6207 19.6773 17.6303C19.8379 17.7001 19.9428 17.7457 19.992 17.816C20.04 17.904 20.04 18.296 19.872 18.76C19.704 19.224 18.92 19.648 18.536 19.704C18.192 19.752 17.76 19.776 17.288 19.624C17 19.536 16.632 19.416 16.16 19.2C14.3519 18.4303 13.1172 16.7115 12.8209 16.299C12.7908 16.257 12.7703 16.2286 12.76 16.216C12.7524 16.2042 12.74 16.1863 12.7238 16.1629C12.5537 15.9171 11.96 15.0592 11.96 14.168C11.96 13.2758 12.4017 12.7914 12.6087 12.5644C12.6263 12.5451 12.6422 12.5277 12.656 12.512Z" fill="#EB6475"/>
</svg>
