<svg width="111" height="36" viewBox="0 0 111 36" fill="none" xmlns="http://www.w3.org/2000/svg">
<circle cx="32.5968" cy="17.787" r="4.40317" fill="#EB6475"/>
<circle cx="18.5282" cy="17.787" r="4.40317" fill="#EB6475"/>
<path d="M17.0784 13.6523C21.4601 12.922 21.4278 8.76585 21.1057 6.72535L24.1127 6.29578L28.0326 10.0009C23.8227 12.5784 22.8777 16.2656 22.9314 17.787L18.6893 16.9815L17.0784 13.6523Z" fill="#EB6475"/>
<circle cx="25.5088" cy="6.40317" r="4.40317" fill="#EB6475"/>
<circle cx="25.5088" cy="29.1707" r="4.40317" fill="#EB6475"/>
<path d="M27.5493 25.2509C24.4993 23.7474 23.164 19.8991 22.8777 18.1628L19.3873 19.8275L17.0247 21.9216C21.4493 22.7808 21.6247 26.8618 21.1593 28.7949L27.5493 25.2509Z" fill="#EB6475"/>
<circle cx="4.53474" cy="17.7869" r="3.83406" fill="#EB6475"/>
<path d="M3.27231 14.1867C7.08766 13.5508 7.05961 9.93182 6.77907 8.15506L9.39744 7.78101L12.8107 11.0072C9.14496 13.2515 8.32204 16.4622 8.3688 17.787L4.67501 17.0856L3.27231 14.1867Z" fill="#EB6475"/>
<circle cx="10.6131" cy="7.87458" r="3.83406" fill="#EB6475"/>
<circle cx="10.6131" cy="27.6993" r="3.83406" fill="#EB6475"/>
<path d="M12.3899 24.2862C9.7341 22.977 8.57141 19.6261 8.32204 18.1143L5.28285 19.5637L3.22556 21.3872C7.07831 22.1353 7.23105 25.6889 6.82583 27.3721L12.3899 24.2862Z" fill="#EB6475"/>
<path d="M105 5.78723L97.779 22.9659H94.6422L97.1685 17.1555L92.4949 5.78723H95.8001L98.8106 13.9345L101.863 5.78723H105Z" fill="#003D51"/>
<path d="M90.9303 1.87146V17.4502H87.983V1.87146H90.9303Z" fill="#003D51"/>
<path d="M85.071 1.87146V17.4502H82.1237V1.87146H85.071Z" fill="#003D51"/>
<path d="M77.759 4.39778C77.2398 4.39778 76.8047 4.23638 76.4538 3.91357C76.117 3.57673 75.9485 3.1627 75.9485 2.67148C75.9485 2.18026 76.117 1.77325 76.4538 1.45045C76.8047 1.11361 77.2398 0.94519 77.759 0.94519C78.2783 0.94519 78.7064 1.11361 79.0432 1.45045C79.3941 1.77325 79.5696 2.18026 79.5696 2.67148C79.5696 3.1627 79.3941 3.57673 79.0432 3.91357C78.7064 4.23638 78.2783 4.39778 77.759 4.39778ZM79.2117 5.78723V17.4502H76.2643V5.78723H79.2117Z" fill="#003D51"/>
<path d="M68.6886 5.61877C70.1202 5.61877 71.271 6.06087 72.1412 6.94507C73.0254 7.81524 73.4675 9.03627 73.4675 10.6082V17.4502H70.5202V11.0082C70.5202 10.0959 70.2886 9.40118 69.8254 8.92399C69.3623 8.43277 68.7307 8.18716 67.9307 8.18716C67.1307 8.18716 66.4921 8.43277 66.015 8.92399C65.5518 9.40118 65.3202 10.0959 65.3202 11.0082V17.4502H62.3729V11.0082C62.3729 10.0959 62.1413 9.40118 61.6782 8.92399C61.215 8.43277 60.5835 8.18716 59.7835 8.18716C58.9694 8.18716 58.3238 8.43277 57.8466 8.92399C57.3835 9.40118 57.1519 10.0959 57.1519 11.0082V17.4502H54.2046V5.78719H57.1519V7.1977C57.5309 6.70648 58.0151 6.32052 58.6045 6.03982C59.208 5.75912 59.8677 5.61877 60.5835 5.61877C61.4957 5.61877 62.3097 5.81526 63.0255 6.20824C63.7413 6.58718 64.2957 7.13454 64.6887 7.85032C65.0676 7.17665 65.615 6.6363 66.3307 6.22929C67.0606 5.82228 67.8465 5.61877 68.6886 5.61877Z" fill="#003D51"/>
<path d="M45.9473 5.13459V8.81875H50.8946V11.1556H45.9473V15.0502H51.5262V17.4502H43V2.73462H51.5262V5.13459H45.9473Z" fill="#003D51"/>
<path d="M111 19.46V34.9923H109.09V19.46H111Z" fill="#003D51"/>
<path d="M106.569 28.8005C106.569 29.1643 106.548 29.5491 106.506 29.9549H97.3123C97.3822 31.0883 97.7671 31.9769 98.4667 32.6206C99.1804 33.2503 100.041 33.5651 101.048 33.5651C101.874 33.5651 102.56 33.3762 103.105 32.9984C103.665 32.6066 104.057 32.0888 104.281 31.4452H106.338C106.03 32.5506 105.414 33.4532 104.491 34.1528C103.567 34.8385 102.42 35.1813 101.048 35.1813C99.957 35.1813 98.9775 34.9364 98.1099 34.4467C97.2563 33.9569 96.5846 33.2643 96.0949 32.3687C95.6051 31.4591 95.3602 30.4097 95.3602 29.2202C95.3602 28.0308 95.5981 26.9883 96.0739 26.0928C96.5496 25.1972 97.2143 24.5116 98.0679 24.0358C98.9355 23.546 99.929 23.3011 101.048 23.3011C102.14 23.3011 103.105 23.539 103.945 24.0148C104.785 24.4906 105.428 25.1482 105.876 25.9878C106.338 26.8134 106.569 27.751 106.569 28.8005ZM104.596 28.4016C104.596 27.674 104.435 27.0513 104.113 26.5336C103.791 26.0018 103.35 25.603 102.791 25.3371C102.245 25.0573 101.636 24.9174 100.964 24.9174C99.999 24.9174 99.1734 25.2252 98.4877 25.8409C97.816 26.4566 97.4312 27.3102 97.3333 28.4016H104.596Z" fill="#003D51"/>
<path d="M88.357 23.2801C89.2246 23.2801 90.0082 23.469 90.7079 23.8468C91.4075 24.2106 91.9533 24.7634 92.3451 25.505C92.7509 26.2466 92.9538 27.1492 92.9538 28.2127V34.9923H91.0647V28.4855C91.0647 27.3381 90.7778 26.4635 90.2041 25.8618C89.6304 25.2461 88.8468 24.9383 87.8533 24.9383C86.8458 24.9383 86.0412 25.2531 85.4395 25.8828C84.8517 26.5125 84.5579 27.4291 84.5579 28.6325V34.9923H82.6478V19.46H84.5579V25.1272C84.9357 24.5395 85.4535 24.0847 86.1111 23.7629C86.7828 23.441 87.5314 23.2801 88.357 23.2801Z" fill="#003D51"/>
<path d="M69.1846 29.2202C69.1846 28.0308 69.4225 26.9953 69.8982 26.1138C70.374 25.2182 71.0317 24.5255 71.8713 24.0358C72.7248 23.546 73.6974 23.3011 74.7888 23.3011C76.2021 23.3011 77.3636 23.644 78.2731 24.3296C79.1967 25.0153 79.8054 25.9668 80.0992 27.1842H78.0422C77.8463 26.4846 77.4615 25.9319 76.8878 25.5261C76.3281 25.1203 75.6284 24.9174 74.7888 24.9174C73.6974 24.9174 72.8158 25.2952 72.1441 26.0508C71.4724 26.7924 71.1366 27.8489 71.1366 29.2202C71.1366 30.6056 71.4724 31.676 72.1441 32.4317C72.8158 33.1873 73.6974 33.5651 74.7888 33.5651C75.6284 33.5651 76.3281 33.3692 76.8878 32.9774C77.4475 32.5856 77.8323 32.0259 78.0422 31.2982H80.0992C79.7914 32.4736 79.1757 33.4182 78.2521 34.1318C77.3286 34.8315 76.1741 35.1813 74.7888 35.1813C73.6974 35.1813 72.7248 34.9364 71.8713 34.4467C71.0317 33.9569 70.374 33.2643 69.8982 32.3687C69.4225 31.4731 69.1846 30.4237 69.1846 29.2202Z" fill="#003D51"/>
<path d="M55.0001 29.1993C55.0001 28.0238 55.238 26.9953 55.7138 26.1138C56.1895 25.2182 56.8402 24.5255 57.6658 24.0358C58.5054 23.546 59.4359 23.3011 60.4574 23.3011C61.465 23.3011 62.3395 23.518 63.0812 23.9518C63.8228 24.3856 64.3755 24.9313 64.7393 25.589V23.4901H66.6704V34.9924H64.7393V32.8515C64.3615 33.5231 63.7948 34.0829 63.0392 34.5306C62.2975 34.9644 61.43 35.1813 60.4365 35.1813C59.415 35.1813 58.4914 34.9294 57.6658 34.4257C56.8402 33.9219 56.1895 33.2153 55.7138 32.3057C55.238 31.3962 55.0001 30.3607 55.0001 29.1993ZM64.7393 29.2202C64.7393 28.3527 64.5644 27.597 64.2146 26.9534C63.8648 26.3097 63.389 25.8199 62.7873 25.4841C62.1996 25.1342 61.5489 24.9593 60.8353 24.9593C60.1216 24.9593 59.4709 25.1273 58.8832 25.4631C58.2955 25.7989 57.8267 26.2887 57.4769 26.9324C57.1271 27.5761 56.9522 28.3317 56.9522 29.1993C56.9522 30.0808 57.1271 30.8504 57.4769 31.5081C57.8267 32.1518 58.2955 32.6486 58.8832 32.9984C59.4709 33.3342 60.1216 33.5021 60.8353 33.5021C61.5489 33.5021 62.1996 33.3342 62.7873 32.9984C63.389 32.6486 63.8648 32.1518 64.2146 31.5081C64.5644 30.8504 64.7393 30.0878 64.7393 29.2202Z" fill="#003D51"/>
<path d="M50.6469 34.9924L47.1626 29.0103H44.8537V34.9924H42.9437V20.3625H47.6663C48.7718 20.3625 49.7023 20.5515 50.458 20.9293C51.2276 21.3071 51.8013 21.8178 52.1791 22.4615C52.5569 23.1052 52.7459 23.8398 52.7459 24.6654C52.7459 25.6729 52.452 26.5615 51.8643 27.3311C51.2906 28.1008 50.423 28.6115 49.2616 28.8634L52.9348 34.9924H50.6469ZM44.8537 27.4781H47.6663C48.7018 27.4781 49.4785 27.2262 49.9962 26.7224C50.514 26.2047 50.7728 25.519 50.7728 24.6654C50.7728 23.7979 50.514 23.1262 49.9962 22.6504C49.4925 22.1747 48.7158 21.9368 47.6663 21.9368H44.8537V27.4781Z" fill="#003D51"/>
</svg>
